<?xml version="1.0" standalone="no"?>
<!DOCTYPE svg PUBLIC "-//W3C//DTD SVG 20010904//EN"
 "http://www.w3.org/TR/2001/REC-SVG-20010904/DTD/svg10.dtd">
<svg version="1.0" xmlns="http://www.w3.org/2000/svg"
 width="300.000000pt" height="382.000000pt" viewBox="0 0 300.000000 382.000000"
 preserveAspectRatio="xMidYMid meet">
<metadata>
Created by potrace 1.10, written by Peter Selinger 2001-2011
</metadata>
<g transform="translate(0.000000,382.000000) scale(0.050000,-0.050000)"
fill="white" stroke="none">
<path d="M120 7616 c39 -11 86 -37 106 -58 20 -21 44 -34 53 -28 10 5 22 -1
27 -15 4 -14 16 -18 25 -10 9 9 0 27 -21 42 -23 17 -30 37 -20 53 11 17 8 21
-7 12 -13 -8 -23 -5 -23 7 0 12 -43 20 -105 19 -104 -2 -105 -2 -35 -22z"/>
<path d="M1587 7616 c-5 -9 3 -16 19 -16 15 0 37 -20 47 -44 14 -30 25 -36 35
-20 8 13 5 24 -7 24 -29 0 -26 54 4 67 14 5 0 9 -32 7 -31 -2 -61 -10 -66 -18z"/>
<path d="M2213 7624 c-6 -9 -2 -29 8 -45 15 -24 18 -23 19 5 0 22 11 31 28 24
15 -6 34 -1 41 11 8 13 -6 21 -37 21 -27 0 -54 -7 -59 -16z"/>
<path d="M2891 7622 c-16 -26 44 -68 79 -55 49 19 36 73 -19 73 -27 0 -54 -8
-60 -18z"/>
<path d="M3122 7632 c18 -17 239 -26 250 -9 5 9 -50 17 -124 17 -74 0 -131 -4
-126 -8z"/>
<path d="M3611 7610 c-21 -16 -34 -33 -30 -36 19 -15 179 30 168 47 -17 28
-94 22 -138 -11z"/>
<path d="M5180 7613 c28 -15 59 -21 70 -15 11 6 35 9 53 6 19 -3 39 4 46 15 9
14 -27 21 -103 21 -108 -1 -113 -2 -66 -27z"/>
<path d="M2511 7561 c-9 -14 -36 -21 -62 -16 -29 6 -42 0 -36 -15 6 -16 -18
-23 -75 -22 -63 2 -85 -6 -89 -31 -5 -32 185 -46 211 -15 6 7 35 20 66 30 50
17 53 22 28 56 -21 28 -32 32 -43 13z"/>
<path d="M3351 7542 c-8 -13 -35 -17 -67 -9 -49 12 -51 10 -27 -20 38 -45 208
-46 245 0 25 29 21 31 -40 17 -45 -9 -72 -6 -82 10 -11 17 -19 18 -29 2z"/>
<path d="M5422 7518 l-49 -40 45 -31 c35 -24 39 -36 21 -59 -19 -22 -17 -28 9
-28 21 0 32 17 32 50 0 44 6 48 60 37 73 -15 79 7 10 33 -27 10 -50 33 -50 50
0 40 -20 37 -78 -12z"/>
<path d="M607 7511 c-7 -21 -25 -28 -49 -20 -21 6 -38 3 -38 -8 0 -27 52 -43
73 -23 9 10 58 20 107 24 114 8 117 44 5 52 -64 5 -88 -2 -98 -25z"/>
<path d="M3026 7500 c10 -39 -24 -56 -53 -26 -19 19 -73 26 -73 9 2 -75 123
-97 155 -28 33 70 32 85 -7 85 -23 0 -29 -12 -22 -40z"/>
<path d="M3809 7522 c13 -22 -35 -42 -103 -42 -34 0 -47 -9 -40 -28 6 -15 0
-38 -13 -52 -21 -23 27 -21 196 7 18 3 23 -9 29 -77 1 -16 10 -30 21 -30 11 0
11 24 1 59 -9 33 -12 76 -7 96 7 26 -6 45 -43 61 -29 14 -48 16 -41 6z"/>
<path d="M2662 7495 c-1 -21 -18 -35 -42 -35 -22 0 -40 -10 -40 -22 0 -12 11
-17 25 -12 14 5 41 0 60 -9 23 -12 35 -11 35 3 0 12 20 29 45 39 44 18 44 19
-8 20 -30 0 -58 12 -64 26 -6 15 -10 11 -11 -10z"/>
<path d="M5715 7498 c22 -28 16 -37 -40 -65 -36 -18 -56 -33 -45 -35 111 -14
150 -11 150 14 0 16 10 28 21 28 12 0 16 -9 9 -20 -7 -11 -7 -39 1 -63 10 -33
17 -36 31 -15 24 39 23 143 -2 128 -11 -7 -20 -3 -20 8 0 11 -14 16 -30 9 -17
-6 -46 1 -65 16 -31 24 -32 23 -10 -5z"/>
<path d="M5894 7480 c13 -48 57 -53 74 -8 18 46 16 48 -36 48 -38 0 -46 -8
-38 -40z"/>
<path d="M4761 7481 c-23 -14 -24 -24 -3 -48 22 -27 29 -27 59 3 49 47 4 83
-56 45z"/>
<path d="M4980 7476 c0 -9 14 -17 30 -19 17 -2 39 -4 50 -5 11 -1 22 7 25 18
3 11 -20 20 -50 21 -30 0 -55 -6 -55 -15z"/>
<path d="M2160 7410 c-46 -49 -46 -50 -6 -50 26 0 46 17 53 44 16 62 7 63 -47
6z"/>
<path d="M1656 7397 c-49 -35 -59 -36 -111 -10 -52 27 -56 27 -56 -5 0 -57
181 -58 211 -1 32 58 20 63 -44 16z"/>
<path d="M3383 7414 c-31 -37 31 -85 129 -101 43 -6 65 -6 48 1 -16 6 -38 25
-47 41 -15 25 -21 25 -35 2 -15 -22 -21 -22 -37 3 -13 19 -13 32 0 37 22 7 6
43 -20 43 -9 0 -26 -12 -38 -26z"/>
<path d="M405 7338 c-25 -9 -45 -28 -45 -42 0 -16 6 -18 15 -6 33 45 89 35 76
-14 -11 -39 -10 -41 9 -11 32 52 0 94 -55 73z"/>
<path d="M640 7342 c0 -12 -17 -22 -39 -22 -21 0 -45 -10 -52 -22 -10 -16 -19
-14 -31 5 -12 19 -17 10 -18 -29 0 -53 5 -56 73 -50 90 7 147 75 98 116 -21
17 -31 18 -31 2z"/>
<path d="M820 7344 c2 -77 147 -96 166 -23 8 31 5 36 -14 21 -16 -14 -47 -15
-89 -3 -34 10 -63 12 -63 5z"/>
<path d="M4795 7346 c-19 -5 -35 -18 -35 -30 0 -11 14 -15 32 -8 17 7 44 12
60 12 15 0 28 9 28 20 0 21 -24 22 -85 6z"/>
<path d="M5083 7303 c-53 -46 -54 -56 -3 -69 44 -11 75 17 35 33 -19 8 -18 15
4 30 17 12 25 26 19 32 -7 6 -31 -6 -55 -26z"/>
<path d="M2650 7300 c-22 -8 -51 -10 -64 -5 -28 10 -86 -40 -86 -74 0 -36 116
-24 138 14 19 32 25 29 74 -25 36 -39 49 -47 41 -22 -9 23 -1 52 20 75 31 35
31 37 -10 37 -24 0 -44 -11 -44 -25 -1 -14 -8 -11 -15 7 -10 23 -26 28 -54 18z"/>
<path d="M1993 7276 c-12 -8 -83 -25 -158 -38 -74 -14 -135 -31 -135 -38 0 -8
38 -7 85 2 235 45 505 61 399 23 -53 -19 46 -64 141 -64 96 -1 114 -14 72 -56
-17 -17 -12 -20 21 -11 56 14 90 75 57 101 -54 42 -160 66 -188 42 -29 -23
-57 -10 -57 27 0 23 -202 34 -237 12z"/>
<path d="M3114 7262 c-55 -35 -55 -37 -14 -48 33 -8 40 -4 31 20 -9 23 -2 28
29 20 22 -6 46 -1 53 11 7 12 4 15 -8 8 -12 -7 -25 -4 -28 7 -4 11 -32 3 -63
-18z"/>
<path d="M1380 7264 c-46 -16 -83 -60 -61 -73 36 -22 150 37 119 62 -16 12
-41 17 -58 11z"/>
<path d="M4581 7251 c-23 -27 -18 -31 32 -30 63 2 158 35 107 38 -16 1 -49 7
-71 13 -25 6 -52 -2 -68 -21z"/>
<path d="M3731 7226 c-11 -29 35 -33 99 -8 34 14 31 17 -24 25 -42 7 -68 1
-75 -17z"/>
<path d="M47 7215 c-7 -12 3 -33 24 -48 67 -49 127 -24 82 33 -27 36 -88 44
-106 15z"/>
<path d="M1060 7179 c0 -12 -9 -16 -20 -9 -11 7 -20 -1 -20 -17 0 -16 14 -34
32 -41 48 -18 52 -15 37 30 -11 37 -8 39 28 20 57 -31 71 -27 36 8 -35 35 -93
40 -93 9z"/>
<path d="M725 7164 c-25 -4 -45 -16 -45 -27 0 -24 158 -7 185 20 16 16 -56 20
-140 7z"/>
<path d="M4940 7168 c0 -11 -19 -41 -42 -66 -41 -43 -31 -97 12 -66 43 31 74
108 52 130 -14 14 -22 15 -22 2z"/>
<path d="M2162 7068 c-52 -27 -93 -84 -75 -102 6 -6 40 18 75 52 71 72 71 87
0 50z"/>
<path d="M520 7050 c0 -22 -10 -30 -30 -23 -16 7 -30 4 -30 -6 0 -24 166 -23
202 2 21 14 15 17 -24 13 -29 -3 -67 7 -85 22 -28 23 -33 22 -33 -8z"/>
<path d="M2750 7036 c-33 -12 -71 -30 -83 -40 -16 -12 -30 -8 -40 11 -14 24
-31 21 -107 -18 -49 -26 -112 -57 -140 -69 -27 -12 -55 -32 -62 -44 -25 -39
-62 7 -49 61 9 44 8 47 -10 18 -11 -19 -33 -35 -48 -35 -15 0 -32 -14 -39 -32
-18 -46 -16 -50 23 -44 20 4 33 -5 30 -20 -4 -19 4 -21 33 -5 22 12 53 15 71
9 17 -7 31 -4 31 7 0 10 43 40 95 67 52 26 100 53 105 60 6 7 59 12 118 11 71
-2 112 6 117 22 5 14 17 25 28 25 11 0 13 -11 5 -25 -8 -14 5 -8 29 13 24 21
43 28 43 15 0 -13 14 -23 30 -23 17 0 30 14 30 30 0 36 -116 39 -210 6z"/>
<path d="M1673 7025 c-33 -54 78 -96 193 -73 53 11 54 14 20 39 -22 16 -43 19
-55 8 -28 -28 -73 -23 -112 12 -19 18 -40 24 -46 14z"/>
<path d="M5208 7009 c-26 -20 -28 -26 -7 -18 18 6 56 -12 86 -40 56 -52 93
-65 93 -34 0 10 35 18 77 18 43 0 88 6 100 13 45 28 22 51 -47 48 -38 -1 -70
-10 -70 -19 0 -30 -57 -18 -84 18 -34 45 -100 51 -148 14z"/>
<path d="M4080 7000 c-25 -17 -23 -22 15 -32 55 -15 59 -48 6 -48 -57 0 -68
-33 -28 -87 l36 -46 35 66 c68 126 31 209 -64 147z"/>
<path d="M783 6975 c-14 -14 -31 -26 -39 -27 -16 -2 -74 -23 -134 -48 -27 -12
-12 -14 45 -7 54 7 85 3 85 -11 0 -34 37 -26 85 18 35 33 37 40 9 40 -21 0
-29 11 -21 30 14 37 3 38 -30 5z"/>
<path d="M4669 6979 c-16 -27 -12 -30 51 -48 37 -10 42 -8 20 7 -24 16 -21 23
20 40 49 19 49 19 -14 21 -35 0 -70 -9 -77 -20z"/>
<path d="M5044 6977 c-55 -15 -64 -26 -53 -60 11 -36 7 -39 -34 -27 -44 14
-45 12 -13 -21 30 -31 40 -32 100 -7 36 15 73 25 81 23 8 -3 15 9 15 25 0 17
-11 30 -25 31 -14 0 -8 13 14 30 45 34 17 36 -85 6z"/>
<path d="M1950 6960 c7 -11 4 -20 -7 -20 -24 0 -46 -56 -26 -68 21 -13 143 49
143 74 0 11 -5 15 -12 9 -7 -7 -34 -4 -61 6 -32 12 -45 12 -37 -1z"/>
<path d="M1273 6932 c-9 -24 -27 -33 -53 -26 -43 11 -57 -33 -18 -57 28 -18
105 59 94 93 -6 18 -13 15 -23 -10z"/>
<path d="M4390 6940 c-85 -15 -94 -80 -11 -80 36 0 67 12 74 29 18 48 0 63
-63 51z"/>
<path d="M310 6879 c-33 -11 -24 -18 45 -37 53 -15 85 -35 85 -54 0 -17 -8
-25 -19 -19 -10 7 -37 -8 -60 -32 -34 -37 -41 -39 -41 -11 0 28 -8 30 -50 10
-80 -36 -56 -92 34 -79 8 2 10 -10 4 -25 -6 -15 5 -33 23 -40 27 -10 32 -3 24
38 -5 27 -1 50 9 50 10 0 13 8 7 18 -6 9 2 28 17 41 20 16 33 16 41 2 20 -32
71 -25 71 9 0 17 -9 30 -20 30 -11 0 -20 14 -20 30 0 17 -13 30 -29 30 -15 0
-40 12 -55 27 -16 16 -42 21 -66 12z"/>
<path d="M5560 6870 c0 -17 -19 -31 -45 -32 -45 -3 -56 -1 -120 17 -26 7 -32
1 -24 -21 15 -38 118 -82 158 -67 16 6 35 2 42 -9 7 -11 23 -17 36 -12 13 4
34 -7 47 -24 20 -27 27 -28 50 -4 22 23 20 26 -10 15 -20 -7 -31 -4 -25 5 6
10 3 39 -8 65 -10 26 -19 35 -20 21 0 -15 -11 -20 -23 -13 -12 7 -17 30 -12
51 7 24 0 38 -18 38 -15 0 -28 -13 -28 -30z"/>
<path d="M2440 6844 c0 -8 -27 -31 -60 -51 -33 -19 -60 -30 -60 -24 0 12 -44
-32 -110 -108 l-40 -47 47 28 c27 15 65 38 85 50 21 12 32 28 25 35 -8 7 -4
13 8 13 12 0 36 14 53 31 17 16 60 43 96 59 l66 28 -55 1 c-30 1 -55 -6 -55
-15z"/>
<path d="M3206 6844 c-14 -9 -5 -27 26 -50 38 -28 48 -30 48 -7 0 38 -46 74
-74 57z"/>
<path d="M4820 6842 c0 -41 26 -82 52 -82 42 0 34 56 -12 80 -24 13 -40 14
-40 2z"/>
<path d="M1759 6819 c-25 -16 -25 -18 0 -19 20 0 18 -8 -10 -29 -22 -17 -30
-30 -19 -31 11 0 7 -9 -10 -20 -23 -15 -14 -19 37 -20 50 0 65 7 56 29 -6 16
1 31 15 35 20 4 18 14 -7 40 -22 23 -41 28 -62 15z"/>
<path d="M1955 6757 c-31 -33 -51 -68 -44 -78 6 -11 2 -19 -10 -19 -11 0 -21
-12 -21 -27 0 -15 -18 -43 -40 -63 -47 -42 -52 -81 -12 -96 37 -15 52 2 52 58
0 50 32 82 44 45 4 -12 25 3 45 34 25 39 30 59 14 65 -34 11 -28 64 7 64 17 0
30 4 30 8 0 5 5 23 12 40 19 49 -16 35 -77 -31z"/>
<path d="M3923 6787 c-37 -16 -63 -33 -58 -38 14 -15 215 36 215 54 0 26 -82
17 -157 -16z"/>
<path d="M4960 6804 c0 -36 -113 -83 -140 -58 -20 19 -23 19 -11 -2 8 -14 3
-40 -11 -56 -21 -25 -20 -35 3 -51 21 -15 11 -17 -35 -9 -36 6 -70 2 -76 -8
-6 -10 -24 -14 -39 -8 -15 6 -33 1 -40 -11 -7 -11 -22 -21 -33 -21 -11 0 -15
9 -8 20 7 11 3 20 -8 20 -24 0 -33 -15 -50 -85 -12 -53 -11 -54 25 -23 21 18
77 34 124 37 48 2 90 15 94 27 5 13 18 24 29 24 32 0 142 100 181 163 19 31
26 57 15 57 -11 0 -20 -7 -20 -16z"/>
<path d="M4690 6786 c-41 -10 -98 -52 -60 -45 55 10 75 -1 51 -30 -13 -16 -39
-23 -57 -17 -26 9 -29 6 -11 -13 39 -43 172 31 146 81 -11 21 -22 37 -25 36
-2 -2 -22 -7 -44 -12z"/>
<path d="M1060 6731 c0 -39 81 -62 101 -29 23 37 4 58 -52 58 -29 0 -49 -12
-49 -29z"/>
<path d="M3689 6704 l-59 -51 66 13 c37 8 79 26 94 42 55 54 -38 50 -101 -4z"/>
<path d="M4261 6712 c-18 -23 -16 -38 12 -70 38 -44 87 -56 87 -22 0 11 -13
20 -30 20 -26 0 -40 37 -32 85 3 23 -11 18 -37 -13z"/>
<path d="M2929 6702 c25 -41 -11 -66 -41 -28 -27 34 -30 34 -68 -11 -22 -26
-53 -42 -68 -37 -15 6 -34 6 -41 -1 -25 -25 -71 -21 -71 7 0 54 -56 28 -88
-41 -18 -38 -51 -82 -72 -97 -22 -15 -34 -34 -27 -41 8 -7 -10 -13 -38 -13
-29 0 -58 -9 -66 -21 -7 -11 -30 -15 -51 -8 -26 8 -38 2 -38 -20 0 -27 22 -39
63 -34 7 1 18 -11 24 -28 7 -16 1 -29 -13 -30 -14 0 -9 -11 11 -27 19 -14 35
-39 36 -54 0 -18 8 -15 22 10 40 68 83 109 106 100 24 -10 106 73 142 142 11
22 34 41 50 42 16 1 43 7 59 13 106 38 264 56 333 37 79 -22 105 -7 107 58 1
26 4 26 26 -1 13 -17 59 -47 103 -68 130 -61 249 -216 277 -361 6 -33 17 -75
24 -93 11 -29 2 -32 -68 -23 -44 6 -96 4 -116 -5 -20 -8 -45 -17 -56 -18 -11
-1 -17 -26 -14 -56 5 -47 -2 -55 -45 -55 -28 0 -51 -8 -51 -18 0 -9 -34 -5
-75 9 -41 15 -91 28 -110 28 -48 1 -44 41 4 41 62 0 65 32 5 59 -75 34 -297
46 -350 18 -63 -31 -154 -120 -154 -149 0 -13 -13 -29 -28 -35 -16 -6 -32 -31
-35 -57 -4 -25 -20 -46 -37 -47 -16 0 -41 -7 -55 -16 -14 -9 -55 -16 -90 -17
-36 -1 -105 -20 -155 -41 -49 -21 -133 -52 -185 -68 -108 -32 -125 -67 -34
-67 72 0 130 -49 150 -126 19 -78 69 -33 69 64 0 119 38 154 174 159 64 2 130
5 146 6 65 7 100 -4 100 -31 0 -74 358 -131 434 -69 14 12 48 17 75 12 27 -5
48 -4 46 3 -8 34 94 262 118 262 15 0 45 -29 67 -65 96 -159 141 -195 238
-193 l92 2 -78 18 c-81 19 -141 56 -122 74 6 6 -7 30 -28 53 -22 22 -45 66
-53 96 -15 62 -5 69 144 94 l97 16 -125 3 c-69 1 -125 10 -125 21 0 26 163 48
236 32 58 -13 85 75 37 123 -23 23 -14 66 15 66 15 0 33 14 40 32 20 51 14 54
-37 21 -30 -20 -54 -25 -61 -13 -7 11 -2 20 10 20 14 0 11 16 -7 42 -17 24
-25 55 -19 70 5 16 1 28 -10 28 -11 0 -40 64 -66 142 -43 131 -118 226 -118
149 0 -35 -126 -31 -196 7 -29 15 -45 16 -55 1 -7 -12 -39 -16 -71 -10 -32 6
-86 16 -121 23 -43 9 -58 5 -48 -10z m86 -717 c6 -18 -22 -25 -98 -25 -59 0
-150 -13 -202 -29 -114 -35 -125 -8 -20 48 86 46 306 50 320 6z m-84 -99 c-2
-19 -15 -37 -28 -42 -30 -10 -30 -69 1 -100 19 -19 18 -24 -3 -24 -15 0 -23
-5 -17 -11 29 -28 114 19 138 76 23 55 21 64 -21 98 l-45 37 85 0 c121 0 168
-45 128 -122 -16 -32 -30 -62 -29 -68 0 -5 0 -23 0 -38 0 -80 -414 -105 -468
-29 -37 53 -25 77 37 77 30 0 50 14 57 41 11 41 -1 42 -101 4 -15 -5 -25 7
-25 30 0 69 60 96 223 102 59 2 72 -4 68 -31z"/>
<path d="M5183 6702 c-15 -10 -42 -14 -60 -9 -57 13 -75 -19 -67 -117 l8 -95
47 35 c30 21 48 55 48 89 1 30 10 55 21 55 11 0 20 -9 20 -20 0 -11 11 -20 25
-19 29 0 106 55 94 66 -23 20 -112 29 -136 15z"/>
<path d="M4126 6660 c-6 -22 -19 -40 -28 -40 -10 0 -18 -15 -18 -33 0 -50 70
18 74 72 4 53 -15 53 -28 1z"/>
<path d="M5449 6634 c-26 -30 -15 -87 26 -135 40 -46 65 -33 50 24 -10 37 -4
42 42 33 68 -13 76 55 8 74 -93 27 -106 27 -126 4z"/>
<path d="M880 6623 c0 -11 -18 -15 -40 -9 -41 11 -50 -7 -25 -47 11 -17 28
-13 60 13 27 22 37 42 25 50 -11 7 -20 4 -20 -7z"/>
<path d="M1511 6602 c-14 -24 22 -49 48 -33 10 6 32 -8 50 -33 l31 -45 0 60
c0 62 -98 100 -129 51z"/>
<path d="M5665 6566 c-34 -13 -32 -46 4 -46 16 0 38 -16 49 -35 20 -33 21 -33
21 0 1 19 -9 35 -20 35 -12 0 -16 8 -10 19 15 23 -11 39 -44 27z"/>
<path d="M653 6531 c-10 -26 11 -28 107 -12 18 3 -49 40 -73 41 -12 0 -28 -13
-34 -29z"/>
<path d="M2380 6540 c0 -11 -17 -20 -39 -20 -44 0 -71 -31 -43 -49 11 -6 25
-2 33 10 7 12 26 17 41 11 18 -7 28 3 28 29 0 21 -4 39 -10 39 -5 0 -10 -9
-10 -20z"/>
<path d="M426 6501 c-3 -28 8 -41 35 -41 22 0 39 -9 39 -20 0 -12 16 -10 40 4
47 30 21 66 -61 86 -41 10 -51 5 -53 -29z"/>
<path d="M5300 6519 c1 -43 28 -79 84 -108 46 -24 50 -23 41 12 -5 21 -24 35
-42 32 -18 -3 -32 6 -33 19 0 13 -11 35 -25 49 -20 20 -25 19 -25 -4z"/>
<path d="M4904 6496 c-37 -37 -29 -76 16 -76 22 0 40 8 40 18 0 10 5 33 12 50
15 38 -33 43 -68 8z"/>
<path d="M5207 6475 c7 -25 13 -58 13 -73 0 -53 29 0 32 59 2 40 -6 59 -27 59
-21 0 -26 -13 -18 -45z"/>
<path d="M202 6471 c28 -28 141 -49 133 -25 -5 13 -39 27 -77 31 -37 3 -62 1
-56 -6z"/>
<path d="M4147 6410 c0 -16 16 -35 36 -41 23 -7 37 -31 37 -62 0 -28 9 -44 20
-37 11 7 20 1 20 -14 1 -19 6 -18 20 4 30 47 24 76 -21 90 -22 7 -57 31 -76
52 -28 30 -36 32 -36 8z"/>
<path d="M4564 6409 c-14 -16 -18 -29 -10 -29 9 0 36 -6 61 -13 53 -14 65 41
13 61 -38 15 -33 16 -64 -19z"/>
<path d="M940 6357 c0 -50 50 -58 87 -15 27 31 27 38 4 38 -16 0 -35 -10 -42
-22 -10 -16 -19 -14 -31 5 -14 21 -17 20 -18 -6z"/>
<path d="M3073 6344 c-5 -8 33 -16 84 -19 51 -3 123 -15 160 -28 54 -17 73
-16 96 7 25 26 21 30 -37 32 -36 2 -117 7 -180 13 -63 5 -119 3 -123 -5z"/>
<path d="M4773 6327 c-25 -26 -13 -49 24 -43 20 3 38 -1 40 -9 8 -39 1 -55
-25 -55 -18 0 -25 -14 -18 -40 6 -22 20 -40 31 -40 13 0 12 -10 -2 -26 -24
-29 -8 -116 25 -139 14 -9 11 -14 -9 -15 -17 0 -30 -17 -30 -40 0 -47 5 -49
40 -14 14 15 25 62 24 105 -3 71 2 78 42 73 25 -4 45 3 45 14 0 11 14 16 30 9
17 -6 30 0 30 13 0 16 -21 21 -56 16 -50 -7 -56 -3 -48 38 5 25 16 41 26 35
25 -16 -3 55 -38 96 -30 35 -105 47 -131 22z"/>
<path d="M5007 6269 c3 -43 17 -80 32 -85 21 -7 24 6 14 58 -20 99 -52 119
-46 27z"/>
<path d="M5865 6272 c-25 -53 -15 -75 26 -59 14 6 23 29 18 51 -11 60 -20 62
-44 8z"/>
<path d="M357 6266 c-12 -14 -29 -21 -38 -15 -9 5 -22 1 -29 -11 -7 -11 -3
-20 9 -20 30 0 161 55 161 68 0 20 -83 2 -103 -22z"/>
<path d="M4050 6260 c-22 -24 -51 -36 -72 -29 -26 8 -44 -8 -69 -60 -18 -39
-41 -71 -50 -71 -18 0 -119 -95 -119 -112 0 -6 11 -3 25 5 14 9 41 13 60 10
21 -3 35 7 35 26 0 17 8 31 19 31 10 0 22 16 27 35 7 26 10 24 12 -10 2 -55
74 -23 94 42 15 47 92 125 116 117 10 -3 7 8 -7 25 -32 38 -28 39 -71 -9z"/>
<path d="M1035 6265 c-61 -8 -73 -53 -23 -81 20 -11 62 -8 113 10 45 15 96 23
113 16 28 -11 29 -9 2 16 -34 33 -124 50 -205 39z"/>
<path d="M5160 6252 c0 -48 99 -107 120 -71 15 23 24 22 54 -5 30 -28 42 -29
72 -6 34 24 32 28 -24 56 -99 49 -222 64 -222 26z"/>
<path d="M5571 6258 c8 -12 3 -29 -10 -37 -16 -10 -7 -26 28 -48 29 -20 51
-25 51 -12 0 12 9 16 20 9 12 -7 15 -21 9 -31 -6 -11 2 -19 18 -19 19 0 26 13
19 40 -6 22 -23 40 -38 40 -15 0 -39 18 -53 40 -13 22 -32 40 -41 40 -9 0 -10
-10 -3 -22z"/>
<path d="M2191 6241 c-7 -11 -25 -15 -40 -9 -15 6 -32 2 -39 -9 -6 -10 1 -24
17 -30 17 -6 35 -2 42 8 6 11 20 14 30 8 11 -6 19 3 19 20 0 35 -12 40 -29 12z"/>
<path d="M586 6193 c8 -20 14 -45 14 -55 0 -10 19 -18 42 -18 28 0 39 -9 32
-28 -16 -42 2 -50 67 -32 97 28 208 -37 138 -81 -17 -10 -17 -18 1 -29 28 -18
64 28 50 65 -11 32 15 32 46 1 19 -19 24 -14 24 20 0 44 -43 65 -148 71 -26 2
-44 10 -39 18 5 8 -21 15 -59 15 -41 0 -92 18 -125 44 -49 39 -55 40 -43 9z"/>
<path d="M1690 6120 c17 -91 17 -91 80 -32 67 63 56 102 -28 102 -63 0 -64 -2
-52 -70z"/>
<path d="M4492 6183 c-7 -11 -6 -24 3 -29 27 -17 106 -5 106 16 0 27 -94 38
-109 13z"/>
<path d="M1290 6160 c-22 -35 20 -66 68 -51 42 14 59 51 24 51 -10 0 -32 5
-48 11 -17 7 -36 1 -44 -11z"/>
<path d="M1433 6130 c-15 -37 21 -37 87 0 l50 29 -63 0 c-38 1 -67 -11 -74
-29z"/>
<path d="M420 6119 c0 -12 -11 -15 -25 -7 -17 9 -19 7 -5 -8 23 -25 135 -8
119 18 -16 25 -89 22 -89 -3z"/>
<path d="M1160 6092 c0 -29 75 -58 103 -40 10 6 16 21 15 34 -1 18 -4 17 -11
-1 -8 -19 -17 -17 -40 5 -37 38 -67 38 -67 2z"/>
<path d="M4412 6082 c-41 -45 -20 -64 43 -40 29 11 40 27 33 47 -16 41 -35 39
-76 -7z"/>
<path d="M2333 6077 c-20 -12 -54 -16 -75 -11 -21 6 -38 2 -38 -8 0 -10 14
-18 30 -18 38 0 39 -28 1 -59 -16 -13 -23 -38 -17 -55 10 -26 3 -29 -41 -19
-42 11 -53 7 -53 -21 0 -26 -5 -29 -24 -10 -45 45 -63 24 -19 -22 23 -26 43
-57 43 -70 0 -49 41 -21 122 81 117 148 154 259 71 212z"/>
<path d="M5070 6043 c-13 -34 -14 -34 53 -50 58 -14 104 23 80 63 -21 32 -119
23 -133 -13z"/>
<path d="M1060 5952 c0 -35 54 -57 72 -29 7 12 1 29 -14 39 -40 25 -58 22 -58
-10z"/>
<path d="M5905 5958 c19 -11 35 -33 35 -49 0 -16 14 -29 30 -29 17 0 30 4 30
10 0 25 -72 90 -99 89 -25 0 -24 -4 4 -21z"/>
<path d="M4353 5945 c-9 -14 7 -43 36 -68 37 -32 44 -49 27 -60 -14 -8 -41 -1
-61 17 -48 44 -45 16 4 -33 26 -26 42 -31 48 -15 7 17 16 16 30 -5 12 -17 28
-22 37 -13 9 10 5 22 -9 26 -14 5 -20 17 -14 27 6 10 -7 35 -28 56 -21 21 -42
50 -47 65 -6 19 -12 20 -23 3z"/>
<path d="M4672 5927 c-7 -17 -3 -43 8 -57 15 -19 12 -35 -11 -58 -29 -29 -29
-32 9 -32 28 0 37 9 30 29 -9 21 0 27 30 21 23 -4 42 1 42 11 0 11 -15 19 -32
19 -24 0 -30 13 -23 50 11 57 -33 71 -53 17z"/>
<path d="M3780 5915 c28 -13 53 -25 57 -27 24 -16 37 -161 18 -206 -12 -28
-20 -60 -17 -69 2 -10 -20 -12 -48 -5 -51 13 -52 13 -21 -46 67 -131 68 -264
2 -505 -13 -48 -10 -51 38 -42 67 13 81 38 42 77 -39 39 -40 70 -2 55 35 -13
84 30 94 84 4 21 34 47 67 58 77 25 76 24 60 52 -10 15 -20 16 -27 3 -7 -11
-35 -23 -63 -27 -27 -4 -61 -20 -74 -37 -29 -35 -28 -36 -36 80 -6 92 16 144
70 165 22 9 19 12 -10 13 -50 2 -61 93 -28 218 35 126 3 184 -97 183 -72 -2
-73 -3 -25 -24z"/>
<path d="M4225 5916 c5 -23 -3 -26 -70 -34 -18 -2 -17 -8 4 -21 16 -10 36 -14
45 -8 9 5 16 0 16 -12 0 -52 34 -15 36 39 1 33 -7 60 -17 60 -11 0 -17 -11
-14 -24z"/>
<path d="M5146 5864 c21 -9 36 -24 34 -34 -2 -11 8 -23 20 -27 14 -4 21 8 17
30 -5 22 -27 39 -57 42 -40 3 -43 1 -14 -11z"/>
<path d="M1944 5845 c-35 -6 -43 -17 -34 -47 7 -21 3 -38 -9 -38 -11 0 -21
-13 -21 -30 0 -36 -62 -40 -96 -6 -19 19 -24 10 -24 -40 0 -35 -9 -64 -20 -64
-11 0 -20 14 -20 32 0 17 -11 28 -25 23 -14 -5 -25 -21 -25 -37 0 -15 -11 -39
-24 -53 -28 -30 -126 -34 -126 -5 0 11 -10 20 -22 20 -16 0 -15 -9 2 -30 14
-16 17 -30 8 -30 -9 0 -5 -11 8 -24 13 -13 24 -40 24 -60 0 -20 23 -47 51 -60
l52 -24 -47 -35 c-25 -20 -36 -36 -24 -37 25 0 108 -68 108 -87 0 -7 -7 -11
-15 -8 -8 3 -15 -4 -15 -15 0 -11 7 -18 15 -15 8 3 20 -18 27 -45 7 -28 25
-50 40 -50 15 0 28 -10 28 -23 0 -12 15 -33 33 -46 25 -19 27 -33 10 -65 -19
-36 -16 -40 28 -35 32 4 57 -8 70 -33 15 -28 14 -38 -5 -38 -25 -1 59 -44 129
-67 56 -19 26 -173 -33 -173 -124 0 -117 -123 7 -129 75 -3 81 -1 49 23 -33
24 -33 26 8 26 25 0 45 -13 47 -30 3 -47 7 -58 24 -85 9 -15 9 -25 -1 -23 -43
7 -66 -5 -66 -35 0 -19 -15 -51 -34 -71 -53 -59 -7 -85 84 -47 95 40 93 41 59
-24 -16 -30 -30 -77 -31 -105 l-2 -50 -22 55 c-12 31 -31 52 -43 48 -29 -10
-23 -259 6 -269 13 -4 23 -20 23 -35 0 -15 13 -34 29 -43 15 -9 27 -21 25 -28
-2 -7 24 -35 57 -64 69 -58 169 -91 169 -56 0 12 10 22 21 22 12 0 16 -8 10
-18 -6 -9 5 -16 24 -15 19 2 33 -8 30 -22 -3 -14 4 -25 15 -25 11 0 20 11 20
25 1 17 7 15 20 -5 12 -18 20 -20 20 -6 0 29 80 26 80 -3 1 -15 5 -15 15 0 8
11 47 22 85 23 89 4 322 69 355 99 13 13 51 35 85 50 33 15 60 33 60 40 0 8
25 19 56 26 30 7 64 32 75 57 10 24 37 44 59 45 25 0 39 13 37 34 -1 19 6 30
15 24 10 -6 18 -1 18 11 0 12 8 17 19 11 10 -7 34 20 52 59 19 39 39 67 44 62
17 -17 60 37 50 63 -5 14 0 25 12 25 11 0 33 25 47 55 14 30 46 64 71 75 30
13 41 31 34 55 -8 24 -1 35 25 37 21 0 25 5 11 11 -14 6 -25 23 -25 39 0 71
-74 22 -131 -86 -152 -291 -504 -555 -866 -648 -277 -72 -478 4 -588 221 -54
107 -56 142 -12 233 16 32 8 81 -31 206 -29 90 -52 184 -52 208 -1 113 -108
367 -162 385 -62 19 -138 91 -177 166 -20 40 -56 95 -79 121 -76 87 -24 241
98 290 42 16 82 39 89 50 6 10 57 34 112 52 100 34 129 83 61 106 -17 6 -22 0
-14 -13 8 -14 1 -23 -17 -23 -17 0 -31 13 -31 29 0 36 -18 45 -76 36z"/>
<path d="M3540 5800 c0 -28 13 -40 46 -40 31 0 46 13 49 40 2 30 -10 40 -46
40 -36 0 -49 -11 -49 -40z"/>
<path d="M3715 5798 c-45 -26 -44 -62 4 -121 30 -38 43 -42 64 -22 20 20 18
30 -12 52 -35 26 -35 28 6 57 67 46 12 77 -62 34z"/>
<path d="M3941 5735 c-1 -46 7 -55 49 -55 37 0 50 -11 50 -42 0 -60 46 -36 54
30 7 52 4 55 -50 43 -47 -10 -61 -4 -79 33 -22 46 -22 46 -24 -9z"/>
<path d="M4885 5767 c-34 -14 -31 -60 5 -74 31 -12 79 52 56 74 -14 15 -25 14
-61 0z"/>
<path d="M479 5719 c-19 -36 -27 -38 -55 -15 -31 23 -31 23 -6 -10 37 -47 88
-36 92 21 4 56 -2 57 -31 4z"/>
<path d="M180 5684 c0 -52 125 -148 198 -152 36 -2 53 41 18 43 -72 7 -108 23
-159 75 -31 31 -57 47 -57 34z"/>
<path d="M5772 5593 c-69 -61 -75 -131 -6 -77 13 10 64 25 112 32 113 17 129
28 94 63 -36 36 -92 38 -93 4 -1 -14 -8 -9 -16 11 -12 32 -23 28 -91 -33z"/>
<path d="M5418 5575 c-2 -34 -5 -36 -12 -10 -5 19 -17 35 -27 35 -29 0 -22
-32 13 -61 33 -28 67 0 68 56 0 45 -40 26 -42 -20z"/>
<path d="M1822 5535 c-27 -14 -52 -36 -57 -50 -6 -18 7 -16 47 4 49 26 62 25
111 -4 71 -42 102 -14 40 37 -55 44 -76 46 -141 13z"/>
<path d="M3480 5543 c0 -10 -28 -24 -61 -30 -34 -7 -56 -21 -50 -31 6 -11 3
-25 -9 -32 -36 -23 -21 -50 29 -50 27 0 55 -10 63 -23 23 -37 68 41 68 117 0
36 -9 66 -20 66 -11 0 -20 -8 -20 -17z"/>
<path d="M3072 5503 c-19 -30 2 -97 35 -109 37 -14 232 52 233 79 0 50 -120
54 -171 6 l-48 -45 -17 46 c-12 31 -22 39 -32 23z"/>
<path d="M71 5454 c9 -24 1 -29 -34 -22 -42 8 -43 7 -7 -9 22 -10 58 -11 81
-2 42 15 128 -29 103 -54 -8 -8 -14 -7 -14 2 0 9 -15 4 -34 -12 -23 -18 -29
-19 -19 -2 10 15 4 25 -14 25 -19 0 -26 -13 -19 -40 8 -29 26 -39 64 -36 29 2
63 -2 75 -10 13 -8 49 0 80 16 39 21 46 30 21 30 -19 0 -40 13 -46 29 -6 16
-25 23 -41 17 -21 -8 -28 0 -24 26 5 25 -6 39 -33 42 -22 3 -65 11 -95 18 -45
10 -53 7 -44 -18z"/>
<path d="M460 5460 c-16 -10 -35 -13 -43 -8 -19 12 -43 -66 -28 -91 30 -47
185 -19 175 32 -11 57 -64 91 -104 67z"/>
<path d="M2967 5412 c-23 -23 -49 -62 -56 -87 -8 -25 -21 -41 -31 -35 -9 6
-23 -16 -30 -49 -7 -32 -28 -63 -46 -68 -19 -6 -3 -8 35 -7 61 4 74 15 125
114 68 132 70 197 3 132z"/>
<path d="M4493 5430 c-7 -16 -32 -30 -57 -30 -25 0 -59 -9 -76 -20 -23 -15
-17 -19 27 -20 36 0 53 -9 48 -25 -12 -37 -80 -30 -122 12 -20 20 -41 32 -47
26 -20 -21 56 -78 125 -93 60 -14 69 -11 69 22 0 21 13 38 28 38 19 0 25 14
17 43 -7 27 -4 39 10 30 11 -7 26 1 32 17 7 18 0 30 -15 30 -15 0 -33 -13 -39
-30z"/>
<path d="M1972 5398 c-51 -40 -65 -100 -40 -166 17 -45 48 -40 48 8 0 22 9 40
19 40 11 0 15 -13 9 -29 -7 -16 11 -42 42 -63 46 -30 52 -46 43 -102 -10 -64
-8 -66 68 -79 44 -6 79 -20 79 -30 0 -9 9 -17 19 -17 11 0 11 24 -2 60 -12 33
-33 60 -47 60 -58 0 -175 196 -162 269 17 86 -9 102 -76 49z"/>
<path d="M5281 5411 c-13 -16 -42 -31 -63 -35 -39 -6 -39 -6 1 -31 36 -22 44
-18 71 35 33 65 30 78 -9 31z"/>
<path d="M876 5365 c-18 -21 -13 -30 21 -38 24 -7 43 -23 43 -37 0 -14 14 -36
30 -50 19 -16 30 -17 30 -4 0 12 -8 27 -19 33 -27 17 -17 88 13 100 17 6 26
-7 26 -36 0 -28 12 -46 30 -46 17 0 30 7 30 16 0 10 -8 17 -18 17 -9 0 -22 18
-28 40 -12 47 -121 50 -158 5z"/>
<path d="M1400 5382 c0 -20 49 -42 95 -42 27 0 26 5 -6 29 -44 33 -89 40 -89
13z"/>
<path d="M5753 5387 c-25 -25 -13 -49 22 -43 20 3 33 -5 30 -19 -3 -14 3 -25
13 -25 10 0 24 -15 31 -34 7 -19 7 -28 -1 -21 -8 8 -27 4 -43 -9 -22 -18 -32
-18 -44 2 -26 42 -121 -35 -121 -99 0 -18 -7 -18 -30 1 -24 20 -30 19 -30 -6
0 -18 8 -37 19 -43 22 -14 121 29 121 52 0 9 22 17 49 17 47 0 108 44 114 81
1 11 3 30 5 44 5 48 -105 131 -135 102z"/>
<path d="M672 5304 c-24 -40 83 -93 134 -67 43 23 43 23 -4 11 -36 -9 -57 -1
-82 32 -22 29 -39 37 -48 24z"/>
<path d="M1133 5283 c-18 -20 -26 -43 -18 -52 8 -9 -5 -6 -29 6 -41 22 -80 4
-52 -24 39 -39 123 0 135 63 11 53 6 54 -36 7z"/>
<path d="M5044 5281 c28 -45 66 -45 66 1 0 15 -21 31 -46 35 -42 6 -44 2 -20
-36z"/>
<path d="M5150 5260 c4 -58 24 -69 48 -24 17 31 14 43 -10 52 -43 16 -42 17
-38 -28z"/>
<path d="M392 5228 c-6 -17 -21 -25 -32 -18 -11 7 -20 2 -20 -11 0 -13 14 -18
30 -12 17 7 30 4 30 -6 0 -10 20 -21 45 -25 25 -4 43 -19 39 -33 -6 -32 59
-23 70 9 4 13 -11 28 -33 34 -49 12 -55 54 -8 54 49 0 27 12 -46 26 -46 9 -67
4 -75 -18z"/>
<path d="M3119 5162 c-186 -112 -156 -211 34 -112 72 38 257 40 291 3 37 -40
149 16 161 80 7 37 4 43 -16 26 -18 -15 -29 -15 -38 0 -8 12 -27 21 -44 21
-16 0 -43 14 -60 30 -56 56 -188 37 -328 -48z m310 -44 c-15 -24 -229 -23
-229 1 0 10 43 22 95 25 110 7 149 -1 134 -26z"/>
<path d="M200 5200 c-26 -18 -26 -22 -1 -39 19 -12 39 -11 55 3 24 19 35 8 28
-30 -2 -10 7 -11 19 -4 14 10 10 26 -13 52 -39 43 -47 45 -88 18z"/>
<path d="M1200 5047 c0 -30 12 -47 32 -47 21 0 28 11 20 32 -8 22 -4 29 15 22
14 -6 39 -2 55 8 24 15 23 18 -2 19 -16 1 -50 5 -75 7 -35 4 -45 -5 -45 -41z"/>
<path d="M5918 5086 c-2 -9 -1 -23 0 -32 2 -10 -5 -12 -15 -6 -10 6 -35 -8
-55 -32 -21 -24 -26 -36 -12 -28 14 9 37 6 51 -5 46 -39 116 -4 109 54 -5 48
-73 90 -78 49z"/>
<path d="M4475 4962 c-47 -48 -44 -66 10 -58 29 4 47 22 51 51 8 53 -13 56
-61 7z"/>
<path d="M965 4955 c-16 -18 -14 -36 7 -64 38 -52 69 -15 38 45 -19 35 -29 40
-45 19z"/>
<path d="M3749 4962 c-5 -5 -9 -32 -9 -61 0 -29 -10 -63 -21 -74 -15 -15 -10
-25 18 -32 32 -8 38 -2 31 34 -5 28 8 59 32 81 22 20 40 42 40 49 0 14 -77 17
-91 3z"/>
<path d="M522 4915 c-1 -31 9 -55 23 -56 14 0 8 -10 -12 -22 -31 -18 -33 -25
-10 -41 19 -13 15 -15 -15 -7 -49 14 -105 -36 -67 -59 12 -8 33 -4 45 8 12 12
38 22 57 22 21 0 32 11 26 25 -5 14 15 42 46 62 30 20 41 32 24 27 -35 -11
-87 22 -104 66 -7 18 -12 8 -13 -25z"/>
<path d="M3484 4916 c-24 -25 -44 -35 -44 -24 0 14 -31 17 -91 8 -50 -8 -95
-6 -101 3 -6 9 -30 17 -53 17 -33 0 -38 -5 -19 -24 48 -48 -9 -92 -75 -57 -40
22 -63 9 -49 -28 10 -26 64 -28 103 -4 14 9 35 9 47 2 77 -48 321 27 346 106
19 57 -7 57 -64 1z"/>
<path d="M750 4917 c15 -38 64 -63 91 -46 9 5 12 24 6 40 -8 21 -19 24 -36 10
-16 -14 -32 -12 -49 4 -19 20 -22 18 -12 -8z"/>
<path d="M5680 4931 c0 -6 28 -25 63 -43 59 -30 62 -30 50 2 -7 18 -13 37 -13
42 0 4 -22 8 -50 8 -27 0 -50 -4 -50 -9z"/>
<path d="M694 4821 c11 -42 106 -52 106 -11 0 17 -7 31 -15 32 -8 1 -34 3 -57
6 -30 4 -40 -4 -34 -27z"/>
<path d="M893 4767 c-21 -21 -16 -38 24 -84 46 -52 62 -54 65 -8 1 22 9 15 21
-20 11 -30 30 -55 41 -55 13 0 11 12 -4 30 -13 16 -19 43 -13 58 7 20 -4 32
-33 36 -24 4 -42 18 -39 31 5 26 -39 34 -62 12z"/>
<path d="M600 4726 c0 -35 59 -139 99 -175 32 -29 35 -42 15 -76 -19 -31 -19
-42 0 -49 16 -6 20 -30 13 -67 -7 -35 -4 -59 9 -59 43 0 84 25 84 52 0 15 16
29 35 30 22 1 15 9 -20 21 -77 29 -69 68 25 112 40 18 42 22 10 18 -22 -2 -51
-11 -64 -19 -26 -17 -86 57 -85 105 0 24 6 22 22 -7 20 -35 24 -32 50 28 15
36 23 71 17 76 -5 6 -10 2 -10 -8 0 -28 -130 -21 -167 9 -18 16 -33 19 -33 9z"/>
<path d="M3588 4703 c13 -21 -98 -123 -134 -123 -14 0 -36 -10 -49 -23 -18
-18 -30 -18 -51 0 -15 12 -33 17 -40 10 -7 -7 -42 -14 -78 -16 -36 -3 -87 -12
-114 -20 -32 -11 -43 -8 -33 7 7 12 0 22 -17 22 -109 0 -28 -61 95 -71 91 -8
109 -21 77 -53 -17 -17 -17 -30 -1 -50 22 -26 -15 -21 -71 10 -31 17 -151 18
-140 1 6 -9 1 -17 -11 -17 -27 0 -28 -59 -1 -62 11 -1 47 -2 80 -2 107 0 123
4 110 24 -7 11 -3 20 9 20 11 0 21 -11 21 -24 0 -13 14 -6 31 15 18 22 25 26
17 11 -11 -21 -6 -25 20 -15 20 7 47 13 62 13 15 0 71 59 124 131 l96 132 150
-7 c83 -3 156 -15 164 -26 8 -10 22 3 33 30 18 50 -7 85 -34 47 -24 -32 -64
-28 -107 13 -33 30 -47 34 -59 15 -13 -20 -16 -20 -17 0 0 15 -28 25 -71 25
-39 0 -67 -8 -61 -17z"/>
<path d="M2455 4688 c-6 -6 -2 -38 9 -71 11 -32 26 -54 31 -48 6 6 24 0 39
-13 40 -33 205 -29 227 6 13 20 18 21 19 3 0 -14 9 -25 20 -25 32 0 23 35 -13
49 -19 7 -41 1 -50 -13 -9 -14 -17 -18 -17 -9 0 10 -13 7 -30 -7 -26 -21 -28
-17 -18 35 11 53 6 60 -35 62 -66 2 -114 13 -130 29 -17 17 -36 18 -52 2z"/>
<path d="M1560 4639 c-87 -11 -88 -12 -30 -27 33 -8 71 -19 85 -23 14 -4 25 7
25 26 0 26 5 28 24 9 28 -28 56 -31 56 -6 0 26 -59 34 -160 21z"/>
<path d="M1751 4642 c-6 -10 11 -32 39 -50 42 -27 47 -28 37 -2 -6 18 0 30 16
30 21 1 20 5 -3 20 -38 24 -74 25 -89 2z"/>
<path d="M2912 4629 c-6 -18 -7 -41 -1 -51 6 -10 2 -18 -10 -18 -11 0 -21 -8
-21 -18 0 -10 17 -14 38 -8 29 7 36 23 29 62 -12 67 -19 74 -35 33z"/>
<path d="M345 4572 c37 -28 -44 -62 -127 -54 -17 2 -31 -10 -31 -26 0 -17 15
-26 39 -21 35 7 38 -1 28 -72 -5 -43 -4 -79 4 -79 7 0 15 -25 18 -55 2 -30 14
-58 25 -62 13 -4 12 -17 -3 -36 -20 -23 -28 -24 -43 -3 -14 21 -20 21 -28 1
-6 -14 -21 -20 -34 -14 -13 7 -7 -1 13 -18 41 -33 11 -113 -42 -113 -14 0 -21
-9 -14 -20 22 -35 70 -21 70 21 0 49 54 74 86 39 19 -20 18 -22 -4 -10 -19 11
-23 9 -14 -7 10 -16 26 -17 52 -3 52 28 66 25 52 -11 -14 -37 28 -109 63 -109
14 0 25 -9 25 -21 0 -11 11 -19 25 -17 14 2 41 -3 61 -11 55 -24 65 4 17 47
l-44 37 51 13 c54 14 70 72 20 72 -16 0 -30 14 -30 30 0 46 -35 36 -72 -21
l-34 -51 -68 75 c-64 70 -66 77 -34 101 33 24 33 28 1 62 -18 21 -33 57 -33
81 0 23 -8 43 -18 43 -30 0 -38 71 -11 108 19 25 27 28 34 8 15 -39 60 11 67
73 4 43 -3 51 -48 50 -49 0 -51 -3 -19 -27z"/>
<path d="M4385 4561 c-71 -59 -48 -77 135 -102 61 -9 148 -22 194 -30 76 -13
83 -11 73 25 -7 27 6 50 42 73 64 42 68 81 6 62 -25 -8 -48 -22 -51 -31 -4 -8
-21 -10 -38 -4 -19 7 -39 -3 -52 -25 -20 -36 -21 -36 -34 0 -15 44 -140 66
-140 25 0 -38 -41 -72 -72 -60 -43 16 -33 52 12 40 33 -9 36 -4 19 28 -25 47
-37 47 -94 -1z"/>
<path d="M960 4449 c0 -47 59 -59 97 -19 31 33 30 35 -12 24 -25 -5 -45 -2
-45 8 0 10 -9 18 -20 18 -11 0 -20 -14 -20 -31z"/>
<path d="M2845 4428 c19 -6 35 -18 35 -27 0 -30 78 -37 101 -10 17 21 14 27
-14 27 -21 0 -64 5 -97 10 -33 6 -44 6 -25 0z"/>
<path d="M5615 4418 c-38 -22 -48 -78 -13 -78 12 0 26 18 32 40 6 22 20 34 31
27 12 -8 15 -3 7 10 -17 27 -13 27 -57 1z"/>
<path d="M5040 4403 c0 -9 -27 -12 -60 -7 -49 7 -58 3 -48 -24 7 -17 24 -32
38 -32 34 0 128 78 95 79 -14 1 -25 -6 -25 -16z"/>
<path d="M1133 4385 c-6 -10 -37 -15 -68 -10 -35 5 -67 -3 -82 -22 -22 -26
-14 -28 61 -19 86 11 134 35 112 57 -7 6 -17 4 -23 -6z"/>
<path d="M1480 4380 c-45 -14 -42 -16 24 -18 40 -1 79 7 86 18 14 23 -38 23
-110 0z"/>
<path d="M1180 4341 c0 -24 20 -40 63 -49 76 -15 84 -9 52 35 -37 50 -115 60
-115 14z"/>
<path d="M1890 4293 c-13 -39 -15 -40 -24 -6 -9 34 -12 34 -40 -7 -19 -27 -44
-40 -68 -34 -24 7 -38 0 -38 -17 0 -15 -20 -46 -44 -68 -53 -50 -36 -74 27
-38 26 14 55 23 64 20 10 -2 29 11 43 30 14 20 56 45 93 58 76 26 99 79 40 94
-28 7 -44 -2 -53 -32z"/>
<path d="M5229 4279 c-7 -12 -26 -17 -41 -11 -15 6 -28 2 -28 -9 0 -10 13 -19
28 -19 16 0 32 -9 35 -20 10 -28 97 -43 97 -17 0 12 -14 16 -31 9 -24 -9 -29
-2 -19 26 13 43 -19 75 -41 41z"/>
<path d="M571 4262 c-16 -26 39 -64 75 -51 26 10 29 -2 19 -72 l-11 -84 53 35
c53 35 70 70 33 70 -11 0 -20 9 -20 20 0 12 20 8 45 -8 39 -25 48 -25 71 0 15
16 17 28 5 28 -12 0 -22 16 -23 35 -1 21 -5 25 -11 10 -6 -14 -24 -25 -40 -25
-16 0 -24 8 -18 18 6 10 -7 14 -29 8 -22 -6 -40 -1 -40 12 0 26 -93 30 -109 4z"/>
<path d="M24 4156 c-13 -13 -24 -31 -24 -40 0 -24 56 -19 71 6 21 33 -19 62
-47 34z"/>
<path d="M2473 4130 c6 -16 1 -30 -11 -30 -13 0 -21 -26 -18 -60 5 -71 45 -78
99 -17 49 57 48 97 -3 87 -25 -5 -40 3 -40 21 0 16 -9 29 -19 29 -11 0 -15
-13 -8 -30z"/>
<path d="M2931 4141 c-7 -10 -29 -15 -51 -11 -22 4 -44 -1 -50 -10 -6 -10 -25
-13 -43 -6 -27 10 -28 6 -4 -31 15 -24 40 -44 57 -45 16 -1 -10 -10 -59 -20
-70 -14 -100 -10 -140 15 -28 18 -44 25 -35 16 8 -9 -5 -28 -30 -42 -31 -17
-36 -26 -15 -26 17 -1 41 9 53 21 16 16 21 12 19 -14 -4 -47 88 -48 255 -1
144 40 137 33 110 110 -22 63 -46 79 -67 44z"/>
<path d="M1474 4126 c-21 -5 -32 -21 -27 -36 9 -24 -28 -53 -73 -58 -8 -1 -25
-15 -36 -32 -16 -23 -18 -20 -8 15 7 25 7 45 0 45 -36 0 -86 -91 -64 -117 24
-29 -27 -83 -79 -83 -38 0 -149 -71 -135 -86 7 -7 -2 -27 -21 -46 -40 -40
-129 -44 -152 -6 -22 36 -43 13 -27 -29 7 -18 29 -33 50 -33 21 0 38 -9 38
-20 0 -11 -9 -20 -20 -20 -11 0 -20 -13 -20 -28 0 -16 -10 -32 -23 -36 -16 -6
-11 -22 13 -50 36 -43 37 -42 251 180 119 123 211 231 205 241 -6 9 8 11 32 4
29 -10 41 -6 38 10 -4 14 23 33 59 42 36 10 65 26 65 35 0 10 13 23 29 29 19
7 25 1 18 -18 -8 -20 2 -29 31 -29 23 0 42 8 42 18 0 33 -60 66 -95 53 -28
-11 -30 -8 -10 12 51 51 18 69 -81 43z"/>
<path d="M5535 4084 c-85 -7 -96 -31 -31 -66 31 -17 46 -17 51 -2 4 12 20 17
35 11 15 -6 23 -23 16 -39 -10 -27 75 -113 106 -107 7 1 21 -9 30 -24 9 -14
22 -20 30 -12 20 21 -76 112 -106 101 -14 -6 -27 -3 -28 7 -3 40 -21 136 -24
137 -2 0 -38 -3 -79 -6z"/>
<path d="M5880 4049 c0 -30 53 -63 71 -44 6 5 4 24 -3 42 -16 42 -68 43 -68 2z"/>
<path d="M680 3944 c0 -60 91 -108 148 -79 47 24 2 60 -53 43 -21 -6 -40 2
-47 21 -13 32 -48 43 -48 15z"/>
<path d="M1743 3940 c0 -16 17 -66 38 -110 22 -44 34 -61 29 -38 -6 23 3 68
19 100 32 62 11 89 -38 49 -20 -17 -30 -16 -37 3 -8 19 -11 17 -11 -4z"/>
<path d="M209 3799 c-16 -26 45 -85 71 -69 36 22 22 81 -20 84 -21 2 -44 -5
-51 -15z"/>
<path d="M1382 3766 l-47 -38 58 -38 c38 -24 49 -27 32 -7 -17 22 -18 36 -2
52 43 43 8 70 -41 31z"/>
<path d="M320 3669 c0 -19 -9 -26 -23 -17 -16 10 -20 4 -12 -17 7 -18 1 -36
-15 -42 -15 -6 -31 -1 -35 12 -14 43 -98 31 -120 -18 -25 -56 -8 -82 33 -49
15 13 50 18 78 11 39 -9 62 2 111 54 73 78 78 97 23 97 -23 0 -40 -13 -40 -31z"/>
<path d="M608 3631 c-17 -70 -3 -80 98 -74 95 7 104 13 123 83 9 35 8 41 -5
22 -11 -15 -30 -20 -44 -12 -71 44 -158 34 -172 -19z"/>
<path d="M1219 3578 c-22 -83 -19 -196 5 -211 9 -5 6 -28 -6 -50 -12 -22 -16
-62 -10 -88 7 -25 3 -52 -8 -59 -22 -13 -21 -456 1 -491 28 -46 77 4 65 65 -8
40 -3 66 16 78 23 16 22 22 -7 40 -20 11 -30 29 -24 40 7 11 2 32 -10 47 -17
21 -17 31 2 43 17 11 13 19 -14 30 -33 13 -34 15 -5 17 24 1 31 11 22 34 -8
21 -5 29 9 20 12 -7 30 14 43 50 27 79 27 83 -1 65 -17 -10 -20 6 -12 56 6 38
4 82 -6 97 -9 15 -9 37 0 48 9 12 15 71 14 133 -2 132 -42 152 -74 36z"/>
<path d="M2460 3550 c0 -21 21 -30 71 -30 43 0 66 8 59 20 -7 12 -21 16 -30
10 -9 -6 -23 -2 -30 10 -19 31 -70 24 -70 -10z"/>
<path d="M1134 3455 c-12 -48 -1 -175 16 -192 5 -5 10 46 10 114 0 129 -8 154
-26 78z"/>
<path d="M700 3411 c0 -19 -32 -38 -86 -52 -91 -23 -121 -88 -50 -110 20 -7
36 -25 36 -42 0 -16 7 -25 15 -21 59 34 133 -88 78 -128 -9 -7 -13 -30 -9 -50
9 -40 39 15 145 269 61 146 63 141 -46 155 -65 7 -83 3 -83 -21z m111 -78 c1
-67 -87 -76 -126 -13 -28 45 -6 53 55 20 25 -13 42 -13 50 0 7 11 -2 20 -20
20 -18 0 -27 9 -19 21 22 37 59 8 60 -48z"/>
<path d="M77 3385 c-47 -10 -98 -185 -54 -185 9 0 17 9 17 20 0 11 14 20 30
20 17 0 30 9 30 20 0 11 13 20 29 20 16 0 37 14 47 32 10 17 24 31 31 30 41
-6 54 0 42 19 -7 12 -26 17 -42 10 -17 -6 -45 -3 -63 6 -19 9 -49 13 -67 8z"/>
<path d="M914 3346 c-23 -39 -37 -150 -18 -138 23 14 53 129 38 145 -6 5 -14
2 -20 -7z"/>
<path d="M360 3282 c0 -9 -18 -22 -40 -28 -22 -6 -46 -27 -54 -47 -7 -20 -27
-47 -43 -59 -56 -42 36 -50 126 -10 102 45 121 69 81 102 -16 13 -25 33 -19
42 6 10 -3 18 -20 18 -17 0 -31 -8 -31 -18z"/>
<path d="M961 3192 c-17 -60 -19 -107 -7 -145 17 -50 21 -40 32 82 16 165 8
184 -25 63z"/>
<path d="M861 3133 c-11 -29 -29 -53 -40 -53 -11 0 -26 -45 -33 -100 -7 -54
-25 -109 -40 -122 -15 -12 -22 -31 -15 -42 7 -12 19 -10 30 7 12 18 14 8 5
-28 -9 -39 -5 -55 15 -56 20 0 19 -6 -5 -25 -17 -13 -27 -37 -22 -54 9 -26 6
-26 -23 -3 -38 32 -42 18 -11 -40 20 -38 24 -34 63 43 22 46 53 88 68 94 36
14 34 55 -4 87 -23 19 -25 29 -6 41 13 8 26 58 28 111 3 53 11 113 19 133 8
20 10 41 3 48 -7 6 -21 -12 -32 -41z"/>
<path d="M3430 3137 c-44 -20 -91 -32 -104 -28 -13 5 -28 -2 -33 -15 -5 -13
-11 -9 -11 10 -1 22 -13 31 -32 23 -16 -6 -25 -19 -20 -28 6 -9 0 -23 -13 -31
-14 -9 -18 -6 -9 9 8 13 5 23 -6 23 -11 0 -28 -15 -39 -33 -26 -48 -90 -20
-73 33 7 23 4 40 -9 40 -11 0 -21 -17 -21 -38 0 -43 -131 -71 -175 -37 -18 14
-25 11 -25 -10 0 -17 -14 -36 -32 -43 -44 -17 -52 -15 -38 8 7 11 4 20 -7 20
-11 0 -15 18 -9 40 13 47 -18 53 -54 10 -14 -16 -18 -30 -9 -30 8 0 -6 -18
-31 -40 -25 -22 -58 -40 -72 -40 -15 0 -22 -13 -16 -29 11 -28 -70 -27 -116 1
-9 6 -41 15 -71 20 -30 4 -77 14 -105 20 -27 6 -43 5 -35 -3 8 -8 -1 -26 -20
-40 -26 -19 -39 -20 -51 -2 -13 17 -20 17 -27 -2 -14 -34 -47 -31 -90 8 -34
31 -37 31 -37 0 0 -18 -13 -33 -30 -33 -16 0 -30 10 -30 21 0 12 -9 16 -20 9
-11 -7 -29 8 -39 34 l-18 46 -2 -45 c-1 -31 -13 -45 -40 -45 -21 0 -44 -9 -51
-20 -7 -12 -4 -19 7 -15 10 3 20 -4 22 -15 1 -11 -21 -23 -48 -26 -28 -4 -51
3 -51 15 0 75 -158 16 -226 -85 -35 -51 -56 -67 -66 -51 -10 16 -24 1 -40 -44
-36 -99 -35 -160 2 -146 21 8 30 -2 30 -32 0 -24 -8 -38 -18 -32 -10 6 -14 -7
-8 -29 6 -22 17 -40 25 -40 8 0 12 -121 10 -269 -3 -197 3 -271 21 -278 14 -6
25 -45 25 -90 0 -46 13 -94 31 -112 45 -45 51 -39 40 41 l-10 73 87 -9 c63 -6
93 0 110 23 13 17 30 24 38 16 8 -8 4 -26 -8 -41 -25 -30 -11 -54 30 -54 15 0
27 21 27 49 0 70 36 82 91 30 27 -25 49 -36 49 -23 0 12 -16 31 -35 42 -57 31
-20 43 177 55 104 6 194 21 202 33 23 38 -40 134 -79 120 -30 -12 -30 -10 -4
18 25 28 33 29 61 3 29 -25 32 -24 24 17 -13 70 39 124 120 127 55 2 68 -4 59
-27 -9 -24 -1 -28 37 -17 26 7 55 13 63 13 8 0 15 10 15 22 0 12 -13 17 -30
11 -16 -7 -30 -4 -30 5 0 33 57 40 81 11 29 -35 83 -37 115 -5 14 14 58 26 99
28 41 2 118 9 170 16 88 11 124 -8 75 -38 -35 -22 -21 -50 25 -50 35 1 38 5
16 19 -63 40 18 82 124 64 8 -2 15 -25 15 -52 0 -47 -202 -135 -235 -102 -6 6
-23 1 -38 -12 -15 -12 -27 -14 -27 -4 0 9 -9 4 -20 -13 -15 -24 -19 -24 -20
-3 0 22 -6 23 -29 4 -25 -21 -222 -30 -341 -16 -23 3 -38 -6 -35 -20 3 -14 -4
-25 -15 -25 -29 0 -24 33 10 67 39 39 38 44 -10 44 -22 0 -40 -7 -40 -15 0 -9
-11 -16 -25 -16 -30 0 -86 -103 -104 -190 l-13 -60 47 58 48 58 43 -58 c41
-55 43 -56 43 -13 1 38 12 45 68 45 37 0 96 10 132 23 66 23 100 4 101 -54 1
-74 -149 -132 -191 -74 -19 26 -26 25 -54 -3 -38 -38 -63 -40 -113 -9 -30 19
-52 16 -115 -17 -146 -76 -280 -78 -294 -5 -7 34 -20 57 -30 51 -10 -6 -14
-32 -9 -57 8 -40 0 -47 -56 -51 -36 -3 -77 -15 -91 -27 -15 -12 -49 -16 -77
-9 -28 7 -50 4 -50 -7 0 -10 -31 -25 -70 -32 -83 -16 -69 -71 27 -105 69 -24
132 3 83 36 -23 16 -19 18 20 12 28 -5 56 -10 64 -11 8 0 10 -15 3 -31 -6 -17
-1 -30 11 -30 12 0 20 11 17 25 -3 14 11 24 30 22 19 -1 35 5 35 14 0 9 18 22
40 29 22 7 36 21 30 30 -20 32 20 37 70 9 28 -15 41 -29 30 -30 -11 -2 3 -10
30 -18 64 -19 100 -5 100 37 0 37 37 82 66 82 10 0 14 -18 8 -40 -6 -22 -2
-45 9 -52 11 -7 10 -23 -5 -40 -13 -16 -18 -35 -11 -42 7 -7 13 -2 13 12 0 13
9 19 20 12 11 -7 20 -34 20 -60 0 -26 8 -53 19 -59 23 -15 51 70 28 86 -26 20
-30 63 -5 63 16 0 15 10 -2 30 -22 26 -20 29 10 17 25 -9 32 -6 22 10 -13 21
41 35 96 24 10 -2 26 9 35 23 13 21 16 21 17 0 0 -15 10 -20 21 -13 40 25 245
29 273 6 15 -12 33 -17 40 -10 7 7 2 13 -11 13 -19 0 -18 7 1 27 21 23 29 22
53 -1 24 -24 32 -22 57 14 23 33 36 37 58 19 21 -18 30 -17 39 7 7 18 25 26
41 20 21 -8 23 -18 7 -37 -35 -42 50 -57 109 -19 46 31 52 30 93 -11 37 -37
42 -38 32 -6 -12 39 77 123 103 97 8 -7 -4 -26 -25 -42 -36 -26 -35 -28 26
-28 50 0 63 8 59 35 -4 22 8 36 34 38 22 3 60 11 85 18 29 9 45 5 45 -10 0
-13 10 -17 22 -10 12 8 29 3 38 -11 12 -19 30 -19 88 2 61 22 81 22 118 0 24
-15 38 -21 31 -13 -7 7 8 36 34 64 26 28 46 62 43 74 -2 13 8 21 22 18 15 -4
21 3 14 15 -7 11 -2 20 10 20 12 0 17 9 9 21 -8 14 -21 14 -41 -2 -39 -33 -35
-9 6 32 30 30 38 60 50 184 2 14 15 25 29 25 15 0 27 9 27 20 0 11 -19 20 -42
20 -47 0 -40 134 9 165 13 8 15 15 5 15 -10 0 -1 19 20 42 21 23 38 57 38 75
0 18 6 42 12 53 19 34 19 133 1 200 -11 38 -11 77 0 97 15 26 10 33 -23 33
-29 0 -40 11 -36 35 5 27 -9 36 -62 38 -60 3 -89 23 -107 73 -3 9 -26 17 -50
19 -25 2 -45 12 -45 22 0 10 -13 7 -30 -7 -16 -13 -58 -20 -92 -15 -39 5 -65
-1 -72 -17 -8 -21 -20 -20 -59 6 -83 54 -188 63 -277 23z m644 -246 c118 -171
114 -234 -25 -379 l-93 -97 43 -170 c49 -195 45 -209 -38 -139 -33 28 -79 57
-101 64 -28 9 -44 37 -52 91 -13 78 -48 91 -48 18 0 -45 -54 -52 -107 -14 -38
28 -40 4 49 490 22 125 22 125 91 125 41 0 64 8 57 20 -13 21 108 104 139 94
10 -4 49 -50 85 -103z m-714 61 c0 -15 -13 -59 -30 -98 -16 -39 -36 -155 -45
-257 -14 -177 -18 -187 -63 -194 -45 -6 -47 -3 -34 77 10 63 7 82 -12 75 -15
-4 -29 -41 -32 -82 -6 -68 -66 -104 -107 -63 -8 8 39 413 50 423 2 2 28 10 59
18 l57 14 -15 -125 c-10 -93 -8 -122 9 -112 14 9 23 69 23 148 1 147 11 175
70 189 66 17 70 16 70 -13z m360 19 c0 -59 -46 -111 -99 -111 -38 0 -67 -14
-80 -39 -34 -62 -25 -81 39 -81 49 0 60 -8 60 -45 -1 -71 -25 -92 -100 -88
-99 4 -115 -75 -18 -94 59 -12 79 -118 31 -166 -35 -36 -250 63 -242 111 4 29
18 120 31 202 12 83 32 161 43 175 14 17 13 25 -3 25 -16 0 -13 20 8 60 30 59
35 60 181 60 82 0 149 -4 149 -9z m-660 -131 c-42 -82 -69 -99 -87 -55 -5 14
-11 4 -11 -21 -1 -25 12 -67 30 -94 64 -98 -17 -290 -122 -290 -29 0 -28 8 8
67 52 84 52 129 2 193 -50 63 -50 114 -1 193 37 61 73 78 176 84 l46 3 -41
-80z m-252 -203 c15 -269 18 -254 -49 -262 -40 -4 -50 5 -55 50 -5 43 -17 55
-54 55 -37 0 -49 -12 -54 -55 -5 -48 -15 -55 -76 -55 -45 0 -83 -14 -106 -40
-34 -39 -36 -39 -60 -3 -70 106 -73 107 -73 28 -1 -41 -9 -75 -19 -75 -10 0
-33 -5 -50 -12 -27 -10 -32 6 -32 97 0 214 23 355 58 355 18 0 41 20 52 43 81
178 226 -5 160 -203 -19 -56 -27 -117 -19 -136 16 -38 88 205 89 301 0 49 7
55 70 55 61 0 70 6 70 50 0 43 9 50 67 50 l67 0 14 -243z m-636 118 c-7 -25
-23 -148 -35 -275 -25 -249 -25 -249 -94 -270 -45 -13 -46 -10 -41 88 3 55 0
107 -8 114 -20 21 -54 -86 -54 -171 0 -59 -11 -84 -49 -109 -76 -49 -78 -45
-65 153 21 299 35 374 78 397 70 38 92 11 75 -95 -8 -53 -10 -104 -5 -112 22
-38 41 15 54 149 14 150 29 175 109 176 40 0 46 -7 35 -45z m-312 -10 c-1 -61
-47 -162 -77 -170 -44 -12 -56 -62 -86 -382 -22 -230 -67 -362 -130 -379 -28
-8 20 589 56 683 14 39 12 45 -13 35 -16 -6 -43 -17 -60 -24 -22 -9 -30 1 -30
39 0 102 34 150 114 164 42 8 90 22 106 31 38 21 120 23 120 3z m1489 -537
c12 -48 2 -87 -16 -66 -19 22 -32 118 -16 118 10 0 25 -24 32 -52z m118 -43
c-10 -39 -7 -47 13 -35 18 11 21 8 11 -8 -11 -18 -26 -16 -58 11 -24 20 -45
38 -48 39 -3 1 -1 16 6 33 21 55 91 19 76 -40z m-1355 -136 c-6 -16 0 -30 14
-31 13 -1 2 -8 -26 -16 -32 -9 -62 -3 -85 17 -50 42 -44 51 37 55 55 3 69 -3
60 -25z m1661 -12 c39 -43 67 -48 67 -11 0 23 54 29 163 17 51 -5 33 -71 -23
-86 l-50 -12 55 -3 c30 -1 55 -11 55 -22 0 -26 -134 -26 -150 0 -7 12 -22 15
-33 8 -11 -7 -47 13 -79 44 -56 54 -58 54 -58 12 0 -24 -7 -44 -15 -45 -8 0
-52 -8 -96 -16 -45 -9 -99 -10 -120 -3 -21 8 -70 1 -109 -15 -45 -19 -103 -26
-164 -18 -52 6 -100 2 -107 -8 -22 -36 -94 -22 -82 16 8 22 0 19 -20 -11 -31
-43 -35 -43 -70 -11 -34 31 -37 31 -37 0 0 -18 -9 -33 -20 -33 -11 0 -20 32
-20 70 0 77 42 96 79 35 20 -32 24 -32 54 10 37 52 67 59 67 15 0 -43 26 -37
58 14 l27 44 36 -44 36 -45 7 46 c7 49 146 70 146 22 0 -13 7 -30 15 -39 8 -8
15 4 15 27 0 65 32 71 74 13 34 -46 41 -48 65 -20 22 27 21 32 -7 32 -17 0
-32 8 -32 18 0 52 226 51 273 -1z"/>
<path d="M3862 2760 c-12 -50 -31 -123 -42 -162 -30 -110 -26 -112 60 -28 90
88 103 157 42 232 l-38 47 -22 -89z"/>
<path d="M2643 2650 c-30 -106 -29 -110 17 -110 43 0 53 70 21 150 -13 34 -19
28 -38 -40z"/>
<path d="M2296 2606 c-11 -114 -3 -130 37 -76 33 45 29 153 -6 164 -14 5 -26
-28 -31 -88z"/>
<path d="M3260 1940 c0 -28 13 -40 45 -40 37 1 39 4 15 20 -27 18 -27 22 0 40
24 16 22 19 -15 20 -32 0 -45 -12 -45 -40z"/>
<path d="M360 3042 c0 -9 -26 -28 -58 -41 -33 -14 -64 -45 -70 -71 -7 -26 -35
-75 -64 -108 -28 -34 -48 -73 -43 -87 4 -13 -4 -37 -20 -52 -15 -16 -22 -42
-16 -58 16 -41 -25 -85 -65 -71 -25 8 -24 3 6 -20 37 -29 37 -32 5 -45 -35
-13 -51 -109 -17 -109 23 0 111 202 105 243 -3 17 9 37 26 44 17 6 31 24 31
38 0 61 314 314 348 281 6 -7 23 -1 38 11 15 12 35 16 44 8 9 -8 9 -3 1 12
-11 18 -22 20 -36 6 -14 -14 -32 -13 -56 2 -27 17 -43 16 -65 -2 -23 -19 -32
-18 -41 6 -13 33 -53 43 -53 13z"/>
<path d="M1029 2995 c5 -25 15 -99 21 -164 11 -113 21 -148 37 -129 14 17 -33
338 -50 338 -10 0 -13 -20 -8 -45z"/>
<path d="M575 2945 c-41 -4 -75 -15 -75 -25 0 -26 45 -50 82 -44 20 3 39 -13
47 -40 14 -45 14 -45 40 13 25 56 22 115 -6 108 -7 -2 -47 -7 -88 -12z"/>
<path d="M12 2923 c-6 -9 -10 -58 -9 -108 l2 -92 41 39 c23 21 49 38 58 38 9
0 16 18 16 40 0 22 -9 40 -20 40 -11 0 -20 14 -20 30 0 32 -51 42 -68 13z"/>
<path d="M508 2745 c-36 -24 -25 -85 15 -85 40 0 50 30 17 50 -12 7 -15 21 -9
31 14 23 7 24 -23 4z"/>
<path d="M549 2626 c-20 -20 -46 -37 -58 -39 -11 -1 -32 -3 -46 -5 -14 -1 -25
-12 -25 -23 0 -13 17 -16 40 -9 22 7 41 5 42 -4 0 -9 4 -31 8 -50 3 -18 -7
-38 -22 -44 -15 -6 -28 -24 -28 -40 0 -16 -11 -33 -25 -39 -19 -8 -19 -14 2
-29 20 -14 21 -23 4 -33 -13 -8 -20 -34 -17 -58 4 -25 -4 -41 -18 -38 -32 6
-11 -49 24 -62 34 -13 15 -93 -22 -93 -16 0 -29 -7 -30 -15 -27 -178 43 -146
88 40 58 240 95 385 112 439 10 30 12 54 5 53 -41 -5 -46 6 -12 31 21 16 33
34 26 41 -7 7 -28 -3 -48 -23z"/>
<path d="M310 2600 c7 -11 2 -20 -11 -20 -18 0 -18 -8 1 -30 27 -33 80 -41 80
-12 0 42 -26 82 -53 82 -16 0 -24 -9 -17 -20z"/>
<path d="M1220 2573 c0 -14 6 -33 14 -40 8 -8 17 -39 20 -69 3 -30 12 -94 19
-144 8 -49 12 -97 10 -105 -1 -8 4 -15 12 -15 8 0 16 -44 18 -97 3 -101 52
-223 90 -223 15 0 17 22 6 65 -8 36 -16 94 -17 130 -1 36 -8 65 -15 65 -18 0
-35 76 -49 223 -6 70 -20 136 -30 146 -10 10 -18 35 -18 55 0 20 -13 36 -30
36 -16 0 -30 -12 -30 -27z"/>
<path d="M1085 2500 c-31 -48 -33 -87 -4 -69 28 17 78 -49 78 -105 1 -24 11
-50 24 -58 28 -17 4 169 -27 206 -11 13 -14 34 -7 45 8 12 1 21 -13 21 -15 0
-38 -18 -51 -40z"/>
<path d="M315 2472 c-19 -14 -28 -33 -20 -41 8 -8 -14 -12 -49 -8 -35 4 -67
-2 -70 -12 -3 -11 21 -20 54 -20 57 -1 81 -68 30 -87 -34 -13 5 -83 42 -77 67
10 88 47 43 75 -71 44 10 187 82 144 13 -7 11 2 -4 20 -33 40 -61 42 -108 6z"/>
<path d="M5260 2235 c-2 -8 -4 -37 -4 -65 0 -129 5 -157 23 -139 12 12 13 59
2 119 -9 55 -18 93 -21 85z"/>
<path d="M1151 2181 c-7 -10 3 -27 22 -38 22 -12 37 -50 41 -105 8 -99 11
-104 58 -95 32 6 32 10 4 38 -18 18 -29 56 -25 88 7 67 -9 115 -33 100 -10 -6
-18 -2 -18 10 0 26 -34 28 -49 2z"/>
<path d="M312 2148 c-7 -18 -25 -27 -42 -21 -18 7 -30 0 -30 -18 0 -33 -71
-40 -90 -9 -24 38 -51 -1 -29 -41 37 -70 239 11 239 95 0 37 -33 32 -48 -6z"/>
<path d="M4460 2085 c0 -26 9 -42 20 -35 11 7 20 1 21 -14 0 -18 8 -16 25 7
14 18 43 37 64 42 30 8 27 11 -15 13 -30 1 -55 10 -55 19 0 9 -13 16 -30 16
-18 0 -30 -18 -30 -48z"/>
<path d="M1272 1891 c6 -15 0 -33 -13 -41 -18 -12 -18 -18 0 -30 13 -8 29 -51
35 -96 10 -77 14 -81 54 -60 37 20 39 19 16 -9 -30 -37 44 -195 91 -195 32 0
44 -171 18 -270 -5 -22 -11 -47 -11 -56 -1 -9 -11 -11 -22 -4 -11 7 -20 4 -20
-6 0 -33 -87 -44 -119 -15 -17 16 -38 29 -46 30 -8 0 -22 2 -30 2 -8 1 3 10
25 19 35 15 36 18 5 21 -19 2 -44 6 -55 9 -11 3 -39 6 -62 8 -28 1 -39 12 -31
31 7 18 1 25 -15 19 -15 -6 -32 4 -39 21 -6 17 -29 31 -49 31 -21 0 -54 18
-74 40 -20 22 -53 40 -73 40 -21 0 -37 14 -37 33 0 25 -13 29 -63 19 -36 -7
-74 -3 -90 10 -20 17 -27 17 -27 0 0 -12 9 -22 20 -22 11 0 20 -13 20 -30 0
-16 -10 -30 -22 -30 -12 0 -17 -13 -11 -28 6 -16 -2 -34 -18 -40 -16 -6 -29
-29 -29 -51 0 -23 -10 -41 -21 -41 -12 0 -16 -9 -9 -20 7 -11 -2 -14 -21 -7
-40 16 -78 -35 -43 -57 15 -10 5 -16 -26 -17 -27 -1 -39 -7 -25 -12 14 -6 25
-25 25 -44 1 -28 3 -29 19 -4 32 50 41 12 11 -45 -23 -45 -23 -54 0 -54 14 0
31 11 36 25 6 14 9 5 8 -21 -2 -30 -13 -43 -35 -40 -32 6 -39 -2 -39 -46 0
-16 9 -15 30 2 23 19 30 19 30 1 0 -40 -40 -101 -66 -101 -13 0 -24 -26 -24
-60 0 -35 11 -60 25 -60 34 0 31 -20 -10 -82 -19 -29 -46 -48 -60 -43 -14 4
-25 -1 -25 -13 0 -12 21 -22 48 -22 57 0 102 -48 79 -84 -9 -14 -18 -35 -20
-46 -2 -11 -9 -36 -17 -55 -11 -27 -4 -35 28 -35 46 0 55 -39 18 -76 -19 -19
-15 -24 15 -24 28 -1 32 -5 13 -17 -14 -9 -20 -30 -13 -48 6 -17 2 -37 -10
-44 -38 -24 -1 -51 68 -51 l67 0 -18 75 c-36 151 -42 528 -12 725 27 168 96
519 106 536 2 4 58 -30 124 -75 125 -85 332 -185 434 -210 96 -23 117 -50 77
-95 -32 -35 -32 -37 -1 -25 44 17 43 1 -1 -43 -33 -34 -33 -35 12 -23 35 9 43
5 35 -16 -6 -16 -4 -30 4 -30 8 -1 39 -5 69 -9 30 -4 60 1 66 11 6 11 -3 19
-20 19 -17 0 -30 7 -29 15 7 45 -5 68 -31 58 -76 -29 -53 70 38 168 104 111
113 222 28 342 -20 29 -37 67 -37 83 0 16 -13 35 -29 41 -16 6 -42 54 -59 107
-16 53 -30 87 -31 76 -4 -35 -60 78 -60 123 -1 23 -14 48 -30 54 -19 7 -25 1
-19 -16z"/>
<path d="M103 1846 c-41 -44 6 -86 48 -43 25 25 26 34 5 52 -19 15 -34 13 -53
-9z"/>
<path d="M274 1726 c-21 -22 -34 -25 -34 -10 0 13 -17 24 -38 24 -25 0 -37
-12 -33 -35 7 -52 181 -47 181 6 0 49 -34 56 -76 15z"/>
<path d="M440 1705 c0 -8 24 -26 52 -39 44 -20 50 -19 40 7 -7 17 -12 34 -12
39 0 4 -18 8 -40 8 -22 0 -40 -7 -40 -15z"/>
<path d="M5934 1447 c46 -61 57 -67 63 -37 4 21 -13 52 -40 73 -75 57 -84 43
-23 -36z"/>
<path d="M5327 1418 c4 -25 18 -50 32 -54 16 -6 22 8 18 37 -4 25 -18 50 -32
54 -17 6 -23 -7 -18 -37z"/>
<path d="M5520 1420 c0 -22 72 -100 93 -100 15 0 65 64 66 85 2 31 -56 13 -65
-20 -8 -30 -12 -28 -24 10 -14 44 -70 64 -70 25z"/>
<path d="M2320 1392 c0 -16 -8 -32 -18 -35 -10 -4 -25 -43 -32 -87 -14 -77
-13 -78 18 -37 18 24 27 58 20 75 -8 21 -1 32 18 32 16 0 35 14 42 32 17 44
16 48 -18 48 -16 0 -30 -13 -30 -28z"/>
<path d="M5400 1220 c0 -49 42 -121 63 -108 14 9 18 5 9 -9 -8 -13 -5 -23 7
-23 11 0 21 -13 21 -30 0 -16 -7 -30 -16 -30 -41 0 -12 -70 30 -73 48 -3 61
21 24 44 -16 10 -14 19 4 30 21 13 19 25 -11 58 -20 22 -27 41 -15 41 13 0 18
11 13 25 -12 31 -129 100 -129 75z"/>
<path d="M5900 1187 c0 -13 -5 -38 -12 -55 -9 -23 -1 -32 28 -32 41 0 74 71
42 91 -10 6 -18 0 -18 -15 -1 -19 -6 -18 -20 4 -11 17 -20 20 -20 7z"/>
<path d="M160 1154 c0 -14 20 -27 45 -29 24 -2 48 -13 51 -24 4 -12 18 -21 31
-20 24 0 -86 99 -112 99 -8 0 -15 -12 -15 -26z"/>
<path d="M0 1130 c0 -33 73 -40 117 -12 33 21 12 34 -62 38 -37 2 -55 -6 -55
-26z"/>
<path d="M4641 1084 c-1 -26 7 -41 17 -35 11 6 22 -2 25 -18 5 -20 15 -12 32
23 17 38 18 47 2 31 -18 -18 -30 -15 -50 11 -23 31 -26 30 -26 -12z"/>
<path d="M1670 1064 c-45 -32 -50 -171 -6 -180 26 -5 33 7 30 60 -3 53 3 65
31 60 19 -3 35 4 35 15 0 12 -13 21 -28 21 -16 0 -32 9 -35 19 -4 11 -16 13
-27 5z"/>
<path d="M5944 1007 c9 -51 56 -57 56 -9 0 25 -13 42 -31 42 -19 0 -29 -14
-25 -33z"/>
<path d="M245 966 c-14 -5 -25 -18 -25 -29 0 -11 9 -14 20 -7 11 7 20 2 20
-10 0 -14 16 -18 40 -10 26 8 40 4 40 -14 0 -14 22 -26 50 -26 28 0 50 7 50
15 0 8 -13 15 -28 15 -15 0 -33 14 -40 32 -7 18 -25 27 -40 22 -15 -6 -35 -4
-45 5 -9 9 -28 12 -42 7z"/>
<path d="M2227 947 c-12 -5 -18 -26 -13 -48 7 -24 -2 -43 -22 -51 -17 -7 -32
-21 -32 -31 0 -11 9 -14 20 -7 11 7 20 -1 20 -18 0 -16 -9 -35 -20 -42 -30
-18 -4 -50 41 -50 32 0 35 8 20 48 -10 26 -12 54 -5 61 7 8 14 29 14 47 0 19
12 32 26 29 20 -4 21 4 4 35 -12 22 -23 39 -26 38 -2 0 -14 -5 -27 -11z"/>
<path d="M5480 891 c0 -16 16 -38 35 -49 19 -12 24 -21 10 -21 -25 -1 -24
-109 2 -134 22 -22 15 -117 -11 -143 -19 -19 -15 -24 15 -24 29 -1 32 -5 12
-18 -21 -13 -19 -19 8 -30 45 -17 44 -24 30 143 -6 79 -5 168 3 197 11 42 6
54 -25 63 -22 5 -39 18 -39 27 0 10 -9 18 -20 18 -11 0 -20 -13 -20 -29z"/>
<path d="M5761 785 c-23 -84 22 -172 51 -98 9 25 19 28 39 13 40 -34 60 18 21
56 -21 21 -32 24 -32 8 0 -13 -13 -24 -29 -24 -16 0 -27 17 -26 37 2 27 14 34
44 26 38 -10 39 -8 7 23 -46 47 -51 44 -75 -41z"/>
<path d="M1331 802 c-22 -26 -26 -42 -12 -51 12 -8 17 -22 11 -31 -6 -9 -2
-23 10 -30 11 -7 20 10 20 40 0 30 9 47 20 40 11 -7 20 1 20 18 0 48 -32 54
-69 14z"/>
<path d="M1854 779 c7 -26 -5 -58 -33 -88 -28 -30 -36 -52 -23 -60 12 -7 22
-3 22 9 0 14 16 18 40 10 22 -7 40 -4 40 7 0 11 -16 24 -35 29 -33 9 -33 9 0
12 44 3 51 122 7 122 -19 0 -25 -14 -18 -41z"/>
<path d="M2140 654 c0 -14 10 -36 22 -48 15 -15 15 -25 0 -35 -12 -7 -22 -2
-22 13 -1 19 -6 18 -20 -4 -30 -46 -25 -53 40 -53 60 0 82 37 38 64 -12 7 -17
30 -12 51 7 24 0 38 -18 38 -15 0 -28 -12 -28 -26z"/>
<path d="M5768 625 c-34 -23 -56 -131 -24 -120 14 5 44 0 66 -11 36 -18 37
-17 13 12 -32 40 -17 94 26 94 17 0 31 9 31 20 0 23 -79 26 -112 5z"/>
<path d="M1373 396 c-6 -25 1 -65 18 -90 33 -50 38 -106 10 -106 -19 0 -14
-46 16 -150 13 -42 17 4 16 158 -3 211 -31 299 -60 188z"/>
<path d="M5515 399 c5 -22 27 -39 47 -39 25 0 38 -14 38 -41 0 -23 -8 -36 -19
-30 -11 7 -12 -11 -2 -47 11 -38 9 -66 -6 -81 -17 -18 -16 -21 7 -12 18 7 41
-6 57 -31 21 -35 21 -40 -1 -27 -14 9 -10 -2 9 -24 19 -22 29 -46 22 -54 -8
-7 9 -13 36 -13 l50 0 -71 215 c-66 197 -76 215 -125 218 -43 4 -51 -3 -42
-34z"/>
<path d="M1680 373 c0 -15 18 -48 41 -74 22 -25 46 -69 53 -97 11 -45 14 -46
26 -13 8 24 -5 71 -35 125 -48 85 -85 111 -85 59z"/>
<path d="M5918 354 c-18 -24 -39 -76 -47 -114 -8 -39 -18 -86 -24 -105 -6 -22
1 -35 21 -35 19 0 26 11 19 30 -6 16 -2 30 8 30 18 0 55 147 48 185 -2 8 6 15
17 15 11 0 20 9 20 20 0 33 -28 21 -62 -26z"/>
<path d="M2018 175 c-3 -63 -18 -102 -51 -140 l-37 -42 66 38 c36 21 57 41 46
45 -11 4 -12 30 -2 65 10 35 10 59 -1 59 -11 0 -20 -11 -21 -25z"/>
<path d="M1640 163 c0 -12 -13 -23 -29 -23 -15 0 -34 -19 -41 -42 -28 -85 39
-70 72 17 10 28 14 55 9 61 -6 6 -11 0 -11 -13z"/>
</g>
</svg>
